<svg xmlns="http://www.w3.org/2000/svg" width="222.4" height="48.331" viewBox="0 0 222.4 48.331">
    <defs>
        <style>
            .cls-1{fill:#333}.cls-3{fill:#002581}
        </style>
    </defs>
    <g id="그룹_693" transform="translate(-382.6 -50.137)">
        <g id="logo" transform="translate(382.6 50.137)">
            <g id="그룹_673" transform="translate(2.2 1.629)">
                <path id="패스_597" d="M56.9 7.3a.975.975 0 0 0-.4-.9 11.254 11.254 0 0 0-1.5-.7 4.005 4.005 0 0 1-1.6-.7 1.513 1.513 0 0 1-.7-1.4 1.457 1.457 0 0 1 .7-1.3 2.86 2.86 0 0 1 1.7-.5 2.768 2.768 0 0 1 1.3.3 1.765 1.765 0 0 1 .9.8 2.279 2.279 0 0 1 .3 1.1H57a1.656 1.656 0 0 0-.5-1.2 2.1 2.1 0 0 0-1.5-.5 1.844 1.844 0 0 0-1.3.4 1.389 1.389 0 0 0-.5 1 .975.975 0 0 0 .4.9 6.446 6.446 0 0 0 1.4.6c.6.2 1.1.4 1.5.5a1.576 1.576 0 0 1 .7.7 2.92 2.92 0 0 1 .2.9 1.357 1.357 0 0 1-.7 1.3 3.458 3.458 0 0 1-3.2.2 2.539 2.539 0 0 1-1-.8 2.016 2.016 0 0 1-.3-1.1h.8a1.425 1.425 0 0 0 .6 1.2 2.41 2.41 0 0 0 1.5.4 1.7 1.7 0 0 0 1.3-.4c.4-.1.5-.4.5-.8z" class="cls-1"/>
                <path id="패스_598" d="M59.6 2.4v1.4h1.1v.5h-1.1v3.5a1.445 1.445 0 0 0 .2.7c.1.2.3.2.5.2h.5v.5a1.268 1.268 0 0 1-.6.1 1.222 1.222 0 0 1-.9-.3 1.493 1.493 0 0 1-.3-1V4.2h-1v-.5h1V2.4z" class="cls-1"/>
                <path id="패스_599" d="M65.3 8.3a2 2 0 0 1-1.7.8 1.728 1.728 0 0 1-1.3-.5 2.076 2.076 0 0 1-.4-1.5V3.7h.6v3.4q0 1.5 1.2 1.5a1.47 1.47 0 0 0 1.6-1V3.7h.6V9h-.6z" class="cls-1"/>
                <path id="패스_600" d="M67.2 6.3a3.939 3.939 0 0 1 .5-2 1.979 1.979 0 0 1 3.1.1v-3h.6V9h-.5v-.7a2 2 0 0 1-1.7.8 1.8 1.8 0 0 1-1.5-.7 3.282 3.282 0 0 1-.5-2.1zm.5.1a2.537 2.537 0 0 0 .4 1.6 1.382 1.382 0 0 0 1.1.6 1.5 1.5 0 0 0 1.5-1V5.2a1.5 1.5 0 0 0-1.5-1 1.149 1.149 0 0 0-1.1.6 3.1 3.1 0 0 0-.4 1.6z" class="cls-1"/>
                <path id="패스_601" d="M74.6 8.2l1.5-4.4h.6L74.4 10l-.1.3a1.481 1.481 0 0 1-1.3 1 .6.6 0 0 1-.4-.1v-.5h.3a1.445 1.445 0 0 0 .7-.2c.2-.1.3-.4.5-.7l.2-.8-2-5.2h.7z" class="cls-1"/>
                <path id="패스_602" d="M81.3 5.1a2.361 2.361 0 0 1-.6-.9 2.354 2.354 0 0 1-.2-.8 1.594 1.594 0 0 1 .4-1.2 1.594 1.594 0 0 1 1.2-.4 1.366 1.366 0 0 1 1.1.4 1.284 1.284 0 0 1 .4 1 2.053 2.053 0 0 1-.8 1.4l-.8.6 2 2.3a2.934 2.934 0 0 0 .4-1.6h.6a3.173 3.173 0 0 1-.6 2l1 1.1h-.7l-.6-.7a2.361 2.361 0 0 1-.9.6 3.6 3.6 0 0 1-1.1.2 2.544 2.544 0 0 1-1.6-.5 1.678 1.678 0 0 1-.6-1.4 1.929 1.929 0 0 1 .3-1 11.089 11.089 0 0 1 1.1-1.1zm.8 3.5a2.92 2.92 0 0 0 .9-.2 1.794 1.794 0 0 0 .7-.5l-2-2.3-.1-.1-.2.2a2.226 2.226 0 0 0-1 1.5 1.159 1.159 0 0 0 .4 1 2.01 2.01 0 0 0 1.3.4zm-1-5.2a2.062 2.062 0 0 0 .7 1.4l.6-.5a1.205 1.205 0 0 0 .5-.5 1.421 1.421 0 0 0 .2-.6.6.6 0 0 0-.3-.6.908.908 0 0 0-.7-.3 1.136 1.136 0 0 0-.8.3 1.077 1.077 0 0 0-.2.8z" class="cls-1"/>
                <path id="패스_603" d="M92.8 5.6h-3.3v2.9h3.8V9h-4.4V1.9h4.4v.5h-3.8v2.7h3.3z" class="cls-1"/>
                <path id="패스_604" d="M96.1 5.9l1.4-2.1h.7l-1.8 2.6L98.3 9h-.7l-1.5-2.2L94.6 9h-.7l1.9-2.7L94 3.7h.7z" class="cls-1"/>
                <path id="패스_605" d="M103.5 6.4a3.939 3.939 0 0 1-.5 2 1.8 1.8 0 0 1-1.5.7 2.136 2.136 0 0 1-1.7-.8V11h-.6V3.7h.5v.7a1.781 1.781 0 0 1 1.7-.8 1.8 1.8 0 0 1 1.5.7 3.281 3.281 0 0 1 .6 2.1zm-.6-.1a2.537 2.537 0 0 0-.4-1.6 1.425 1.425 0 0 0-1.2-.6 1.222 1.222 0 0 0-.9.3 1.7 1.7 0 0 0-.6.8v2.5a1.344 1.344 0 0 0 .6.7 1.486 1.486 0 0 0 .9.2 1.149 1.149 0 0 0 1.1-.6 2.175 2.175 0 0 0 .5-1.7z" class="cls-1"/>
                <path id="패스_606" d="M106.9 9.1a2.375 2.375 0 0 1-1.2-.3 2.361 2.361 0 0 1-.8-.9 2.768 2.768 0 0 1-.3-1.3v-.3a3.194 3.194 0 0 1 .3-1.4 3.915 3.915 0 0 1 .8-1 2.279 2.279 0 0 1 1.1-.3 1.8 1.8 0 0 1 1.5.7 2.445 2.445 0 0 1 .6 1.8v.3h-3.8v.1a2.456 2.456 0 0 0 .5 1.5 1.612 1.612 0 0 0 1.3.6 1.884 1.884 0 0 0 .8-.2 3.039 3.039 0 0 0 .7-.5l.4.3a2.323 2.323 0 0 1-1.9.9zm-.2-5a1.606 1.606 0 0 0-1.1.5 1.9 1.9 0 0 0-.5 1.3h3.2v-.1a2.144 2.144 0 0 0-.4-1.2 1.5 1.5 0 0 0-1.2-.5z" class="cls-1"/>
                <path id="패스_607" d="M112.4 4.2h-.4a1.222 1.222 0 0 0-.9.3 1.346 1.346 0 0 0-.5.9V9h-.6V3.7h.6v.8a1.551 1.551 0 0 1 1.5-.9c.2 0 .3 0 .4.1z" class="cls-1"/>
                <path id="패스_608" d="M113.3 2.2a.4.4 0 1 1 .8 0 .4.4 0 1 1-.8 0zM114 9h-.6V3.7h.6z" class="cls-1"/>
                <path id="패스_609" d="M117.6 9.1a2.375 2.375 0 0 1-1.2-.3 1.765 1.765 0 0 1-.8-.9 2.768 2.768 0 0 1-.3-1.3v-.3a3.194 3.194 0 0 1 .3-1.4 3.915 3.915 0 0 1 .8-1 2.279 2.279 0 0 1 1.1-.3 1.683 1.683 0 0 1 1.5.7 2.445 2.445 0 0 1 .6 1.8v.3h-3.8v.1a2.456 2.456 0 0 0 .5 1.5 1.612 1.612 0 0 0 1.3.6 1.884 1.884 0 0 0 .8-.2 3.039 3.039 0 0 0 .7-.5l.4.3a2.2 2.2 0 0 1-1.9.9zm-.1-5a1.606 1.606 0 0 0-1.1.5 1.9 1.9 0 0 0-.5 1.3h3.2v-.1a2.144 2.144 0 0 0-.4-1.2 1.5 1.5 0 0 0-1.2-.5z" class="cls-1"/>
                <path id="패스_610" d="M121.3 3.7v.9a1.576 1.576 0 0 1 .7-.7 1.689 1.689 0 0 1 1-.3 1.728 1.728 0 0 1 1.3.5 1.955 1.955 0 0 1 .4 1.4V9h-.6V5.5a1.8 1.8 0 0 0-.3-1.1 1.222 1.222 0 0 0-.9-.3 1.689 1.689 0 0 0-1 .3 1.456 1.456 0 0 0-.6.9V9h-.6V3.7z" class="cls-1"/>
                <path id="패스_611" d="M128.2 8.6a1.689 1.689 0 0 0 1-.3.975.975 0 0 0 .4-.9h.6a1.613 1.613 0 0 1-.3.9 1.344 1.344 0 0 1-.7.6 2.959 2.959 0 0 1-1 .2 1.865 1.865 0 0 1-1.6-.7 2.883 2.883 0 0 1-.6-1.9v-.2a3.194 3.194 0 0 1 .3-1.4 1.765 1.765 0 0 1 .8-.9 2.133 2.133 0 0 1 1.2-.3 1.978 1.978 0 0 1 1.4.5 2.026 2.026 0 0 1 .6 1.4h-.6a1.777 1.777 0 0 0-.4-1 1.284 1.284 0 0 0-1-.4 1.425 1.425 0 0 0-1.2.6 2.537 2.537 0 0 0-.4 1.6v.2a2.537 2.537 0 0 0 .4 1.6 1.418 1.418 0 0 0 1.1.4z" class="cls-1"/>
                <path id="패스_612" d="M133.4 9.1a2.375 2.375 0 0 1-1.2-.3 1.765 1.765 0 0 1-.8-.9 2.768 2.768 0 0 1-.3-1.3v-.3a3.194 3.194 0 0 1 .3-1.4 3.915 3.915 0 0 1 .8-1 2.279 2.279 0 0 1 1.1-.3 1.683 1.683 0 0 1 1.5.7 2.445 2.445 0 0 1 .6 1.8v.3h-3.8v.1a2.456 2.456 0 0 0 .5 1.5 1.612 1.612 0 0 0 1.3.6 1.884 1.884 0 0 0 .8-.2 3.039 3.039 0 0 0 .7-.5l.4.3a2.082 2.082 0 0 1-1.9.9zm-.1-5a1.606 1.606 0 0 0-1.1.5 1.9 1.9 0 0 0-.5 1.3h3.2v-.1a2.144 2.144 0 0 0-.4-1.2 1.5 1.5 0 0 0-1.2-.5z" class="cls-1"/>
            </g>
            <g id="그룹_461" transform="translate(2.2 2.231)">
                <g id="그룹_460">
                    <g id="그룹_674">
                        <path id="패스_550_1_" fill="#fe0" d="M37.5 34.7l-18.1 8.6a6.782 6.782 0 0 1-6.2-.2l-9.7-5.4A6.465 6.465 0 0 1 0 31.9V12.1a6.618 6.618 0 0 1 3.5-5.9L13.2.8a6.782 6.782 0 0 1 6.2-.2l18.1 8.6a6.7 6.7 0 0 1 3.9 6.1v13.2a7.1 7.1 0 0 1-3.9 6.2z"/>
                        <path id="패스_613" d="M16.4 46.1a9.16 9.16 0 0 1-4.3-1.1l-9.7-5.4a8.57 8.57 0 0 1-4.6-7.7V12.1a8.761 8.761 0 0 1 4.6-7.8l9.7-5.4a8.88 8.88 0 0 1 8.1-.3l18.1 8.6a8.825 8.825 0 0 1 5.1 8v13.2a9.1 9.1 0 0 1-5.1 8.1l-18.1 8.6a7.207 7.207 0 0 1-3.8 1zm0-44a4.282 4.282 0 0 0-2.2.6L4.5 8.1a4.474 4.474 0 0 0-2.4 4v19.8a4.306 4.306 0 0 0 2.3 3.9l9.8 5.4a4.651 4.651 0 0 0 4.3.1l18.1-8.6a5.013 5.013 0 0 0 2.7-4.4V15.2a4.586 4.586 0 0 0-2.7-4.2L18.5 2.5a5.222 5.222 0 0 0-2.1-.4zm21.1 32.6z" class="cls-3"/>
                    </g>
                    <path id="패스_614" d="M29.1 18.9a2.92 2.92 0 0 1-.9-.2L16.1 13 9 16.6a2.272 2.272 0 0 1-2.9-.9 2.272 2.272 0 0 1 .9-2.9l9-4.6 14 6.7a2.073 2.073 0 0 1 1 2.8 1.961 1.961 0 0 1-1.9 1.2z" class="cls-3"/>
                    <path id="패스_615" d="M16.1 34.5a2.112 2.112 0 0 1-2.1-2.1V12.2a2.112 2.112 0 0 1 2.1-2.1 2.182 2.182 0 0 1 2.1 2.1v20.2a2.051 2.051 0 0 1-2.1 2.1z" class="cls-3"/>
                </g>
                <g id="그룹_675">
                    <path id="패스_616" d="M59.1 31.7h-3.9V19.9h-3v-3.5h10v3.5h-3l-.1 11.8z" class="cls-3"/>
                    <path id="패스_617" d="M67.3 31.7h-3.7V16.4h4.9a21.128 21.128 0 0 1 3 .2 3.839 3.839 0 0 1 1.8.9 4.958 4.958 0 0 1 1.9 4.2 4.9 4.9 0 0 1-1 3.2 4.21 4.21 0 0 1-2.8 1.6l4.2 5.2h-4.5l-3.6-5v5zm0-11.8v4.2h1.4c1.7 0 2.6-.7 2.6-2.2 0-1.4-.8-2.1-2.5-2.1h-1.5z" class="cls-3"/>
                    <path id="패스_618" d="M87.3 31.7l-.7-2.2h-5.3l-.8 2.2h-4.2l6.1-15.3h3.1l6.1 15.3zm-3.4-10.5l-1.6 5.2h3.2z" class="cls-3"/>
                    <path id="패스_619" d="M95.4 31.7l-5.1-15.3h4l3.1 10.8 3.1-10.8h4l-5.2 15.3z" class="cls-3"/>
                    <path id="패스_620" d="M114.2 31.7h-8.5V16.4h8.5v3.5h-4.8v2.3h4.6v3.5h-4.6v2.6h4.8z" class="cls-3"/>
                    <path id="패스_621" d="M124.9 31.7h-8.4V16.4h3.9v11.9h4.5z" class="cls-3"/>
                    <path id="패스_622" d="M140.7 31.7h-8.4V16.4h3.9v11.9h4.5z" class="cls-3"/>
                    <path id="패스_623" d="M150.9 31.7h-8.5V16.4h8.5v3.5h-4.8v2.3h4.6v3.5h-4.6v2.6h4.8z" class="cls-3"/>
                    <path id="패스_624" d="M162.8 31.7l-.7-2.2h-5.3l-.8 2.2h-4.2l6.1-15.3h3.1l6.1 15.3zm-3.3-10.5l-1.6 5.2h3.2z" class="cls-3"/>
                    <path id="패스_625" d="M172.1 31.7h-3.7V16.4h4.9a21.128 21.128 0 0 1 3 .2 3.839 3.839 0 0 1 1.8.9 4.958 4.958 0 0 1 1.9 4.2 4.9 4.9 0 0 1-1 3.2 4.21 4.21 0 0 1-2.8 1.6l4.2 5.2h-4.5l-3.6-5v5zm0-11.8v4.2h1.4c1.7 0 2.6-.7 2.6-2.2 0-1.4-.8-2.1-2.5-2.1h-1.5z" class="cls-3"/>
                    <path id="패스_626" d="M185.5 31.7h-3.7V16.4h3.4l6 9.7-.2-9.7h3.7v15.3h-3.4l-5.9-9.3z" class="cls-3"/>
                    <path id="패스_627" d="M205.8 31.7h-8.5V16.4h8.5v3.5H201v2.3h4.6v3.5H201v2.6h4.8z" class="cls-3"/>
                    <path id="패스_628" d="M211.9 31.7h-3.7V16.4h4.9a21.128 21.128 0 0 1 3 .2 3.839 3.839 0 0 1 1.8.9 4.958 4.958 0 0 1 1.9 4.2 4.9 4.9 0 0 1-1 3.2 4.21 4.21 0 0 1-2.8 1.6l4.2 5.2h-4.5l-3.6-5v5zm0-11.8v4.2h1.4c1.7 0 2.6-.7 2.6-2.2 0-1.4-.8-2.1-2.5-2.1h-1.5z" class="cls-3"/>
                </g>
            </g>
        </g>
    </g>
</svg>
